<?xml version="1.0" encoding="UTF-8"?>
<svg id="Layer_1" xmlns="http://www.w3.org/2000/svg" viewBox="0 0 803.25 200">
  <defs>
    <style>
      .cls-1 {
        fill: #0064ff;
      }
    </style>
  </defs>
  <g>
    <path d="M188.36,69.33h27.8c12.62,0,20.8,7.39,20.8,17.45,0,7.1-3.84,12.22-9.86,14.79,7.89,2.27,13.51,8.68,13.51,17.05,0,11.53-8.18,19.72-22.38,19.72h-29.87v-69.01h0ZM213.99,97.91c5.91,0,10.25-3.15,10.25-9.46s-4.63-9.17-10.35-9.17h-12.62v18.63h12.72ZM216.16,128.38c6.21,0,11.44-3.15,11.44-10.45s-5.22-10.55-11.93-10.55h-14.39v21s14.89,0,14.89,0Z"/>
    <path d="M244.5,113.39c0-15.28,8.18-26.32,22.08-26.32,7.1,0,12.42,3.25,15.77,8.87v-7.49h12.13v49.88h-12.13v-7.49c-3.35,5.52-8.68,8.87-15.77,8.87-13.9,0-22.08-11.04-22.08-26.32h0ZM269.54,129.56c8.18,0,12.62-6.6,12.62-16.17s-4.44-16.17-12.62-16.17-12.62,6.6-12.62,16.17,4.53,16.17,12.62,16.17Z"/>
    <path d="M303.34,88.45h12.13v7.89c2.86-5.91,8.97-9.17,15.38-9.17,11.73,0,17.84,7.1,17.84,19.22v31.94h-12.42v-29.77c0-7.1-2.96-11.24-9.46-11.24-7,0-11.04,5.32-11.04,14.39v26.62h-12.42v-49.88h0Z"/>
    <path d="M355.59,141.49h12.62c1.18,3.84,4.73,6.41,10.84,6.41,8.38,0,11.73-5.22,11.73-12.91v-5.62c-3.25,4.34-8.18,6.9-14.49,6.9-13.6,0-21.69-10.25-21.69-24.55s8.08-24.65,21.69-24.65c6.61,0,11.63,2.96,14.89,7.79v-6.41h12.03v46.43c0,14.39-9.56,22.58-24.35,22.58-13.21,0-21.79-6.21-23.27-15.97h0ZM379.15,126.21c7.79,0,12.22-5.91,12.22-14.49s-4.44-14.49-12.22-14.49-12.13,5.91-12.13,14.49,4.44,14.49,12.13,14.49Z"/>
    <path d="M424.52,114.08v24.25h-12.42v-69.01h12.42v39.63l17.84-20.51h14.89l-20.31,22.58,22.97,27.31h-15.28l-20.11-24.25h0Z"/>
    <path d="M456.68,113.39c0-15.28,9.37-26.42,25.34-26.42s25.14,11.14,25.14,26.42-9.27,26.42-25.14,26.42-25.34-11.14-25.34-26.42ZM482.01,129.76c8.28,0,12.72-6.8,12.72-16.36s-4.44-16.36-12.72-16.36-12.91,6.9-12.91,16.36,4.54,16.36,12.91,16.36Z"/>
    <path d="M525.8,114.08v24.25h-12.42v-69.01h12.42v39.63l17.84-20.51h14.89l-20.31,22.58,22.97,27.31h-15.28l-20.11-24.25h0Z"/>
    <path d="M586.43,69.33h27.8c12.62,0,20.8,7.39,20.8,17.45,0,7.1-3.84,12.22-9.86,14.79,7.89,2.27,13.51,8.68,13.51,17.05,0,11.53-8.18,19.72-22.38,19.72h-29.87v-69.01h0ZM612.06,97.91c5.91,0,10.25-3.15,10.25-9.46s-4.63-9.17-10.35-9.17h-12.62v18.63h12.72ZM614.23,128.38c6.21,0,11.44-3.15,11.44-10.45s-5.22-10.55-11.93-10.55h-14.39v21h14.89Z"/>
    <path d="M642.57,113.39c0-15.28,8.18-26.32,22.08-26.32,7.1,0,12.42,3.25,15.77,8.87v-7.49h12.13v49.88h-12.13v-7.49c-3.35,5.52-8.68,8.87-15.77,8.87-13.9,0-22.08-11.04-22.08-26.32h0ZM667.61,129.56c8.18,0,12.62-6.6,12.62-16.17s-4.44-16.17-12.62-16.17-12.62,6.6-12.62,16.17,4.54,16.17,12.62,16.17Z"/>
    <path d="M701.41,88.45h12.13v7.89c2.86-5.91,8.97-9.17,15.38-9.17,11.73,0,17.84,7.1,17.84,19.22v31.94h-12.42v-29.77c0-7.1-2.96-11.24-9.46-11.24-7,0-11.04,5.32-11.04,14.39v26.62h-12.42v-49.88h0Z"/>
    <path d="M767.86,114.08v24.25h-12.42v-69.01h12.42v39.63l17.84-20.51h14.89l-20.31,22.58,22.97,27.31h-15.28l-20.11-24.25h0Z"/>
  </g>
  <path class="cls-1" d="M135.75,79.75L75,0,14.25,79.75C4,93.25,0,105,0,117.75c0,19.5,9.75,37,27.25,49.25l47.75,33,47.75-33c17.5-12.25,27.25-29.75,27.25-49.25,0-12.75-4-24.5-14.25-38ZM65.25,163.75v11.75l-29.25-20c-13.75-9.25-21.5-23-21.5-37,0-7.25,2-14.25,5.5-20.75,1.5,4.25,4,8.5,9.5,14.75l31,34.5c5,5.75,4.75,9.25,4.75,16.75ZM42.25,105c-7.75-8.5-9.25-13.25-9.25-18.25s1-9,7-16.75l35-45.5,35,45.5c5.75,7.75,7,12,7,16.75,0,5-1.5,9.75-9.25,18.25l-32.75,36.5-32.75-36.5ZM114,155.5l-29.25,20v-11.75c0-7.5-.25-11,4.75-16.75l31-34.5c5.5-6.25,8-10.5,9.5-14.75,3.5,6.5,5.5,13.5,5.5,20.75,0,14-7.75,27.75-21.5,37Z"/>
</svg>