<?xml version="1.0" encoding="UTF-8"?><svg id="b" xmlns="http://www.w3.org/2000/svg" width="240" height="374.26" viewBox="0 0 240 374.26"><defs><style>.d{fill:#fff;}.e{fill:#da2128;}.f{fill:#ffd400;}.g{fill:#58595b;}.h{fill:#6f5f5e;}</style></defs><g id="c"><path class="h" d="M12.52,341.29l-2.23-5.26h-.04l-2.25,5.26h4.51ZM17.5,346.9h-2.59l-1.49-3.5h-6.29l-1.47,3.5h-2.59l6.12-13.86h2.26l6.06,13.86ZM41.52,346.9h-2.36v-5.36c0-1.91-.67-2.86-2.02-2.86-.71,0-1.26.25-1.64.75-.38.5-.57,1.15-.57,1.96v5.52h-2.32v-5.36c0-1.91-.67-2.86-2.02-2.86-.69,0-1.24.25-1.65.76-.41.51-.61,1.19-.61,2.07v5.4h-2.32v-10.09h2.32v1.53h.06c.71-1.19,1.74-1.78,3.11-1.78s2.39.6,2.99,1.8c.88-1.2,2.06-1.8,3.53-1.8,1.11,0,1.98.36,2.59,1.09.61.73.92,1.69.92,2.88v6.37ZM51.36,340.07c-.4-1.1-1.19-1.65-2.36-1.65s-1.96.55-2.38,1.65h4.75ZM53.66,345.24c-1.2,1.27-2.7,1.9-4.49,1.9-1.63,0-2.92-.5-3.86-1.51-.9-.96-1.34-2.19-1.34-3.74s.45-2.81,1.36-3.82c.91-1,2.12-1.51,3.61-1.51s2.72.49,3.62,1.49c.84.93,1.28,2.13,1.33,3.62h-7.61v.23c0,1,.29,1.79.86,2.4.58.61,1.3.91,2.18.91,1.07,0,2.03-.44,2.89-1.32l1.45,1.34ZM71.88,346.9h-2.36v-5.36c0-1.91-.67-2.86-2.02-2.86-.72,0-1.27.25-1.65.75-.38.5-.57,1.15-.57,1.96v5.52h-2.32v-5.36c0-1.91-.67-2.86-2.02-2.86-.69,0-1.24.25-1.65.76-.41.51-.61,1.19-.61,2.07v5.4h-2.32v-10.09h2.32v1.53h.06c.71-1.19,1.74-1.78,3.11-1.78s2.39.6,2.99,1.8c.88-1.2,2.06-1.8,3.53-1.8,1.11,0,1.97.36,2.59,1.09.61.73.92,1.69.92,2.88v6.37ZM80.26,345.16c.87,0,1.57-.32,2.1-.94.53-.62.8-1.42.8-2.37s-.27-1.7-.81-2.34c-.54-.63-1.23-.95-2.09-.95s-1.57.32-2.15.95c-.57.64-.86,1.41-.86,2.33s.29,1.73.86,2.37c.58.64,1.29.96,2.15.96M77.21,346.9h-2.3v-14.85h.04l2.29.7v5.65h.06c.89-1.23,2.06-1.83,3.51-1.83,1.33,0,2.46.49,3.4,1.48.93.99,1.4,2.25,1.4,3.79s-.46,2.83-1.38,3.82c-.92.99-2.06,1.48-3.41,1.48-1.57,0-2.75-.61-3.55-1.82-.01,0-.02,0-.02.01-.01,0-.02,0-.02-.01v1.59ZM94.94,340.07c-.41-1.1-1.19-1.65-2.36-1.65s-1.95.55-2.38,1.65h4.75ZM97.24,345.24c-1.2,1.27-2.7,1.9-4.49,1.9-1.63,0-2.91-.5-3.86-1.51-.89-.96-1.35-2.19-1.35-3.74s.45-2.81,1.37-3.82c.91-1,2.11-1.51,3.61-1.51s2.71.49,3.62,1.49c.84.93,1.28,2.13,1.33,3.62h-7.61v.23c0,1,.29,1.79.86,2.4.58.61,1.3.91,2.18.91,1.07,0,2.03-.44,2.89-1.32l1.45,1.34ZM102.26,346.9h-2.32v-10.11h2.32v2.32h.04c.76-1.7,2.04-2.56,3.82-2.56v2.5c-2.57.05-3.85,1.56-3.85,4.51v3.33ZM119.16,345.07c.89,0,1.62-.3,2.19-.91.57-.6.86-1.37.86-2.28s-.27-1.7-.83-2.31c-.55-.62-1.29-.92-2.22-.92s-1.65.31-2.2.92c-.54.61-.82,1.38-.82,2.31s.28,1.68.85,2.28c.57.61,1.29.91,2.17.91M124.58,341.87c0,1.53-.51,2.8-1.52,3.79-1.02.98-2.32,1.48-3.89,1.48s-2.85-.5-3.87-1.48c-1.02-.99-1.53-2.25-1.53-3.79s.5-2.77,1.49-3.79c1-1.01,2.3-1.52,3.91-1.52s2.94.51,3.93,1.52c.99,1.02,1.49,2.27,1.49,3.79M130.1,351.03h-.03l-2.29-.7v-11.48h-1.34v-2.05h1.34v-1.01c0-2.25,1.05-3.37,3.15-3.37.63,0,1.3.09,2.03.27v2.05c-.6-.18-1.09-.27-1.45-.27-.94,0-1.41.53-1.41,1.58v.74h2.85v2.05h-2.85v12.17ZM9.66,368.12c.49-.31.73-.73.73-1.26s-.24-.95-.73-1.28c-.48-.32-1.06-.48-1.74-.48s-1.21.15-1.62.46c-.41.31-.62.74-.62,1.3s.2.95.6,1.25c.4.3.93.45,1.6.45s1.28-.15,1.77-.44M12.78,370.14h-2.3v-.89h-.06c-.82.79-1.84,1.18-3.07,1.18-1.15,0-2.11-.32-2.88-.95-.83-.67-1.24-1.54-1.24-2.61s.41-2,1.22-2.65c.76-.62,1.72-.93,2.9-.93,1.24,0,2.25.38,3.05,1.14h.06v-.54c0-1.38-.8-2.08-2.4-2.08-1.12,0-2.11.36-2.96,1.07l-1.28-1.41c1.24-1.11,2.71-1.67,4.42-1.67,1.36,0,2.44.33,3.26.99.86.71,1.29,1.71,1.29,3v6.35ZM28.44,366.75c.59-.56.89-1.26.89-2.09s-.3-1.48-.9-2.02c-.6-.54-1.31-.8-2.14-.8s-1.48.26-2,.8c-.53.54-.79,1.21-.79,2.02s.27,1.54.8,2.09c.54.56,1.22.84,2.05.84s1.5-.27,2.09-.84M31.71,368.59c0,1.53-.51,2.76-1.54,3.68-1.03.93-2.36,1.39-4,1.39-1.81,0-3.31-.65-4.49-1.94l1.47-1.41c.89.88,1.89,1.33,3,1.33.9,0,1.66-.3,2.28-.91.62-.61.93-1.37.93-2.3v-.62h-.04c-.86,1.18-2.05,1.76-3.56,1.76-1.33,0-2.45-.46-3.36-1.38-.91-.92-1.36-2.1-1.36-3.54s.46-2.54,1.37-3.47c.92-.93,2.03-1.39,3.33-1.39,1.44,0,2.63.58,3.56,1.74h.04v-1.52h2.36v8.57ZM34.83,355.28l2.33.7v14.15h-2.33v-14.85ZM45.2,368.3c.89,0,1.62-.3,2.19-.91.57-.6.86-1.37.86-2.28s-.27-1.69-.83-2.31c-.55-.61-1.3-.92-2.22-.92s-1.65.31-2.2.92c-.55.62-.83,1.38-.83,2.31s.29,1.68.85,2.28c.57.61,1.29.91,2.17.91M50.62,365.1c0,1.54-.51,2.8-1.53,3.79-1.02.99-2.32,1.48-3.89,1.48s-2.86-.49-3.87-1.48c-1.02-.99-1.53-2.25-1.53-3.79s.5-2.77,1.49-3.78c.99-1.02,2.3-1.53,3.91-1.53s2.94.51,3.93,1.53c1,1.01,1.49,2.27,1.49,3.78M58.52,368.39c.86,0,1.57-.31,2.1-.94.53-.63.79-1.42.79-2.37s-.27-1.71-.81-2.34c-.53-.63-1.23-.95-2.09-.95s-1.57.32-2.15.95c-.58.63-.86,1.4-.86,2.32s.29,1.73.86,2.37c.58.65,1.29.96,2.15.96M55.46,370.14h-2.3v-14.85h.03l2.29.7v5.66h.06c.89-1.22,2.06-1.84,3.51-1.84,1.33,0,2.46.5,3.39,1.49.93.98,1.4,2.25,1.4,3.78s-.46,2.83-1.38,3.83c-.92.99-2.06,1.48-3.41,1.48-1.57,0-2.75-.61-3.55-1.82,0,0-.02.01-.02.02-.01,0-.02,0-.02-.02v1.59ZM72.12,368.12c.49-.31.74-.73.74-1.26s-.24-.95-.73-1.28c-.48-.32-1.06-.48-1.74-.48s-1.21.15-1.62.46c-.41.31-.62.74-.62,1.3s.2.95.6,1.25c.4.3.93.45,1.6.45s1.28-.15,1.77-.44M75.23,370.14h-2.3v-.89h-.06c-.82.79-1.85,1.18-3.07,1.18-1.15,0-2.11-.32-2.88-.95-.82-.67-1.24-1.54-1.24-2.61s.41-2,1.22-2.65c.76-.62,1.72-.93,2.9-.93,1.24,0,2.25.38,3.05,1.14h.06v-.54c0-1.38-.8-2.08-2.4-2.08-1.12,0-2.11.36-2.96,1.07l-1.28-1.41c1.24-1.11,2.71-1.67,4.41-1.67,1.35,0,2.44.33,3.26.99.85.71,1.28,1.71,1.28,3v6.35ZM78.35,355.28l2.32.7v14.15h-2.32v-14.85ZM99.84,370.14h-2.36v-10.11h2.36v10.11ZM99.95,358.42h-2.57v-2.32h2.57v2.32ZM92.71,374.26h-.04l-2.29-.7v-11.48h-1.33v-2.06h1.33v-1c0-2.25,1.06-3.37,3.18-3.37.63,0,1.31.09,2.03.28v2.05c-.61-.18-1.1-.27-1.46-.27-.95,0-1.42.53-1.42,1.59v.74h2.85v2.06h-2.85v12.18ZM112.44,370.14h-2.36v-5.36c0-.79-.15-1.43-.44-1.92-.36-.63-.94-.95-1.73-.95-.71,0-1.29.25-1.74.75-.45.5-.67,1.19-.67,2.08v5.4h-2.33v-10.09h2.33v1.53h.04c.76-1.19,1.86-1.78,3.28-1.78,1.1,0,1.98.35,2.64,1.05.66.7.99,1.67.99,2.92v6.37ZM121.19,368.12c.49-.31.73-.73.73-1.26s-.24-.95-.72-1.28c-.48-.32-1.06-.48-1.74-.48s-1.21.15-1.62.46c-.42.31-.62.74-.62,1.3s.2.95.6,1.25c.4.3.93.45,1.6.45s1.28-.15,1.77-.44M124.31,370.14h-2.3v-.89h-.06c-.82.79-1.84,1.18-3.07,1.18-1.15,0-2.11-.32-2.88-.95-.82-.67-1.24-1.54-1.24-2.61s.41-2,1.22-2.65c.76-.62,1.72-.93,2.9-.93,1.24,0,2.25.38,3.05,1.14h.06v-.54c0-1.38-.8-2.08-2.4-2.08-1.12,0-2.11.36-2.96,1.07l-1.28-1.41c1.24-1.11,2.71-1.67,4.41-1.67,1.35,0,2.44.33,3.26.99.85.71,1.29,1.71,1.29,3v6.35ZM136.6,370.14h-2.36v-5.36c0-.79-.15-1.43-.45-1.92-.36-.63-.94-.95-1.73-.95-.72,0-1.3.25-1.74.75-.45.5-.68,1.19-.68,2.08v5.4h-2.32v-10.09h2.32v1.53h.04c.76-1.19,1.85-1.78,3.28-1.78,1.1,0,1.98.35,2.64,1.05.66.7.99,1.67.99,2.92v6.37ZM148.59,368.51c-1.18,1.24-2.57,1.86-4.2,1.86s-2.86-.5-3.85-1.51c-.99-1.01-1.49-2.26-1.49-3.76s.49-2.76,1.47-3.77c.98-1.02,2.27-1.53,3.87-1.53s3.05.61,4.2,1.82l-1.43,1.38c-.81-.79-1.69-1.19-2.68-1.19-.93,0-1.67.31-2.21.92-.55.61-.83,1.4-.83,2.37s.28,1.71.85,2.32c.57.62,1.3.93,2.19.93.94,0,1.84-.42,2.69-1.24l1.41,1.39ZM153.47,370.14h-2.36v-10.11h2.36v10.11ZM153.58,358.42h-2.57v-2.32h2.57v2.32ZM162.53,368.12c.49-.31.73-.73.73-1.26s-.24-.95-.72-1.28c-.48-.32-1.06-.48-1.74-.48s-1.21.15-1.62.46c-.42.31-.62.74-.62,1.3s.19.95.59,1.25c.4.3.94.45,1.6.45.7,0,1.28-.15,1.77-.44M165.64,370.14h-2.3v-.89h-.06c-.82.79-1.84,1.18-3.07,1.18-1.14,0-2.11-.32-2.88-.95-.82-.67-1.24-1.54-1.24-2.61s.41-2,1.22-2.65c.76-.62,1.72-.93,2.9-.93,1.23,0,2.25.38,3.04,1.14h.06v-.54c0-1.38-.8-2.08-2.4-2.08-1.12,0-2.12.36-2.97,1.07l-1.28-1.41c1.24-1.11,2.71-1.67,4.41-1.67,1.35,0,2.44.33,3.26.99.86.71,1.28,1.71,1.28,3v6.35ZM168.76,355.28l2.33.7v14.15h-2.33v-14.85ZM186.95,366.75c.59-.56.89-1.26.89-2.09s-.3-1.48-.89-2.02c-.6-.54-1.31-.8-2.14-.8s-1.49.26-2,.8c-.53.54-.79,1.21-.79,2.02s.27,1.54.8,2.09c.53.56,1.21.84,2.04.84s1.5-.27,2.09-.84M190.22,368.59c0,1.53-.51,2.76-1.54,3.68-1.03.93-2.36,1.39-4,1.39-1.8,0-3.31-.65-4.49-1.94l1.47-1.41c.89.88,1.89,1.33,3.01,1.33.9,0,1.66-.3,2.28-.91.63-.61.93-1.37.93-2.3v-.62h-.04c-.86,1.18-2.05,1.76-3.55,1.76-1.33,0-2.46-.46-3.36-1.38-.9-.92-1.37-2.1-1.37-3.54s.46-2.54,1.38-3.47c.91-.93,2.03-1.39,3.33-1.39,1.44,0,2.63.58,3.56,1.74h.03v-1.52h2.36v8.57ZM195.57,370.14h-2.32v-10.11h2.32v2.32h.04c.76-1.7,2.03-2.56,3.81-2.56v2.5c-2.57.05-3.85,1.56-3.85,4.51v3.33ZM206.22,368.3c.89,0,1.63-.3,2.2-.91.57-.6.86-1.37.86-2.28s-.28-1.69-.83-2.31c-.55-.61-1.3-.92-2.23-.92s-1.65.31-2.19.92c-.55.62-.83,1.38-.83,2.31s.29,1.68.85,2.28c.56.61,1.29.91,2.16.91M211.64,365.1c0,1.54-.51,2.8-1.53,3.79-1.02.99-2.32,1.48-3.9,1.48s-2.85-.49-3.87-1.48c-1.02-.99-1.53-2.25-1.53-3.79s.5-2.77,1.49-3.78c.99-1.02,2.3-1.53,3.91-1.53s2.94.51,3.93,1.53c.99,1.01,1.49,2.27,1.49,3.78M223.35,370.14h-2.34v-1.57h-.06c-.73,1.2-1.81,1.8-3.21,1.8-1.09,0-1.96-.33-2.62-.99-.7-.7-1.05-1.68-1.05-2.96v-6.39h2.37v5.82c0,.63.17,1.17.5,1.62.4.53.95.79,1.67.79,1.59,0,2.38-1.19,2.38-3.55v-4.68h2.36v10.11ZM231.82,368.4c.84,0,1.53-.32,2.08-.96.54-.64.81-1.43.81-2.37s-.27-1.72-.81-2.34c-.53-.62-1.23-.93-2.08-.93s-1.57.32-2.15.94c-.58.63-.86,1.4-.86,2.33s.29,1.73.86,2.37c.57.64,1.29.96,2.15.96M228.77,374.26c-1.01-.26-1.78-.49-2.32-.7v-13.54h2.34v1.59h.06c.85-1.21,2.03-1.82,3.51-1.82,1.36,0,2.49.48,3.4,1.44.93.99,1.39,2.27,1.39,3.83s-.46,2.83-1.37,3.83c-.92.98-2.06,1.48-3.42,1.48-1.5,0-2.68-.6-3.55-1.8h-.04v5.69Z"/><path class="e" d="M162.61,339.9c0-2.38-1.93-4.31-4.31-4.31s-4.32,1.93-4.32,4.31,1.93,4.31,4.32,4.31,4.31-1.93,4.31-4.31M162.52,329.53c-1.51,0-2.94.32-4.23.9-1.29-.58-2.72-.9-4.23-.9-5.73,0-10.37,4.64-10.37,10.37s4.64,10.37,10.37,10.37c1.5,0,2.93-.33,4.23-.9,1.29.58,2.72.9,4.23.9,5.73,0,10.37-4.64,10.37-10.37s-4.64-10.37-10.37-10.37M158.3,349.27c-5.18,0-9.37-4.2-9.37-9.38s4.19-9.37,9.37-9.37,9.37,4.2,9.37,9.37-4.2,9.38-9.37,9.38"/><path class="g" d="M190.94,346.75v-8.94l-3.86,5.85h-.08l-3.81-5.79v8.88h-2.96v-13.7h3.25l3.6,5.8,3.6-5.8h3.25v13.7h-2.99ZM202.87,346.96c3.68,0,6-2.04,6-6.18v-7.73h-3.02v7.85c0,2.18-1.11,3.29-2.95,3.29s-2.95-1.15-2.95-3.39v-7.74h-3.01v7.83c0,4.03,2.24,6.08,5.92,6.08M222.46,335.79v-2.73h-10.58v13.69h3.02v-5.21h5.99v-2.67h-5.99v-3.08h7.56ZM231.17,346.98c2.51,0,4.44-.98,5.85-2.17v-5.95h-5.95v2.67h3.03v1.89c-.77.55-1.74.83-2.84.83-2.43,0-4.15-1.83-4.15-4.35v-.04c0-2.33,1.74-4.26,3.94-4.26,1.59,0,2.53.51,3.58,1.38l1.9-2.27c-1.43-1.23-2.92-1.89-5.38-1.89-4.15,0-7.19,3.2-7.19,7.09v.04c0,4.05,2.94,7.04,7.2,7.04"/><rect class="h" width="240" height="316.57"/><path class="d" d="M61.38,216.15h4.93s.82.2.82.87v2.41h.11c1.36-2.73,4-3.85,7.33-3.85v5.82c-.4,0-.77.03-1.14.07-3.45.35-6.31,2.28-6.31,6.95v9.74s.11,1.78-1.55,1.78h-4.2v-23.79ZM181.65,239.93h4.17c1.7,0,1.57-1.78,1.57-1.78v-9.74c0-4.67,2.86-6.61,6.29-6.95.36-.03.74-.07,1.12-.07v-5.82c-3.3,0-5.97,1.13-7.33,3.85h-.08v-2.41c0-.67-.84-.87-.84-.87h-4.91v23.79ZM99.33,217.27c0-.99-.94-1.12-.94-1.12h-4.8v12.79c0,2.87-1.3,6.03-5.64,6.03-2.93,0-4.24-1.44-4.24-4.71v-12.99c0-.99-.84-1.12-.84-1.12h-4.9v15.76c0,6.92,4.66,8.59,8.7,8.59,3.25,0,5.54-1.26,6.81-2.92h.1v2.35h4.88c.85,0,.86-.95.86-.95v-21.71M104.97,239.93h4.88c.87,0,.86-.96.86-.96v-11.59c0-4.39,2.3-6.27,5.08-6.27,2.97,0,3.95,2.11,3.95,4.29v14.53h4.9c.88,0,.83-.9.83-.9v-15.37c0-5.23-2.55-8.09-8.18-8.09-2.3,0-4.82.85-6.49,2.92h-.1v-1.29c0-.92-1-1.05-1-1.05h-4.74v23.79ZM141.28,220.86c4.34,0,5.6,3.76,5.65,6.29-.04,2.54-1.31,6.29-5.65,6.29s-5.59-3.75-5.64-6.29c.05-2.53,1.32-6.29,5.64-6.29M152.49,217.21c0-1.07-.98-1.07-.98-1.07h-4.76v2.28h-.11c-1.4-1.68-3.25-2.86-6.68-2.86-5.93,0-10.34,4.42-10.34,11.57s4.41,11.58,10.34,11.58c2.06,0,4.94-.66,6.79-2.65v2.55c0,2.92-1.7,4.81-5.43,4.81-2.86,0-4.45-1.33-4.87-2.98h-6.03c0,2.98,3.07,8.23,10.6,8.23,6.38,0,11.47-3.06,11.47-9.23v-22.23M176.75,220.58s.82-.7.02-1.47c-1.46-1.47-4.34-3.54-9.14-3.54-5.89,0-10.55,2.35-10.55,7.71,0,9.04,14.74,5.69,14.74,9.75,0,1.28-1.89,2.78-4.63,2.78-3.06,0-5.54-1.04-6.85-2.98l-3.74,2.89s-.56.5-.1.99c2.16,2.19,5.86,3.79,11.03,3.79,5.45,0,10.59-2.59,10.59-8.32,0-8.99-15-5.46-15-9.62,0-1.41,1.68-2.34,4.35-2.28,2.89,0,4.69,1.3,5.6,2.68.16.23.27.46.41.69l.56-.53,2.71-2.55M198.21,239.93h4.85c1.03,0,.89-.96.89-.96v-21.88c0-.88-.86-.95-.86-.95h-4.87v23.78ZM203.97,212.26h-4.92c-.95,0-.85-.82-.85-.82v-5h4.79s.97.07.97.8v5.02ZM58.35,216.15h-6.16c-1.19,0-2.13.84-2.13.84l-8.18,8.08v-12.87c0-1.04-.88-1.75-.88-1.75l-4.87-4v33.49h4.76c1.08,0,.99-1.25.99-1.25v-6.33c0-.26.21-.52.51-.52.4,0,.9.55.9.55l6.64,6.58s1.16.96,2.53.96h5.88l-12-11.91,12-11.88ZM58.65,260.62c-.78.18-1.49.48-2.12.84-.63.39-1.14.84-1.55,1.44-.42.63-.61,1.36-.61,2.22,0,0,0,1.37.49,2.24.35.65.97,1.27,1.55,1.71.59.46,1.23.83,1.94,1.16.68.32,1.32.64,1.91.98.57.38,1.07.73,1.46,1.14.4.44.59.97.59,1.64,0,.46-.26.9-.75,1.28-.49.38-2.39.82-4.45.11-.48-.16-2.52-1.19-2.52-1.19v3.1c.62.31,1.12.57,1.69.72.53.18,1.76.56,3.26.56,2.07,0,3.53-.52,4.49-1.49.95-.98,1.45-2.19,1.45-3.71,0-.67-.14-1.27-.42-1.78-.27-.51-.61-.96-1.03-1.39-.42-.42-.89-.81-1.43-1.12-.53-.29-1.03-.61-1.54-.88-.46-.24-.88-.45-1.3-.65-.4-.18-.77-.41-1.09-.64-.35-.23-.6-.53-.79-.84-.21-.3-.3-.69-.3-1.15,0-.44.09-.8.3-1.09.19-.29.44-.5.75-.66.34-.15.92-.28,1.3-.32,2.6-.27,4.73.96,4.73.96v-2.58c-2.1-.75-4.23-.96-5.99-.62M104.63,260.62c-.8.18-1.51.48-2.14.84-.63.39-1.14.84-1.55,1.44-.41.63-.61,1.36-.61,2.22,0,0,0,1.37.49,2.24.36.65.98,1.27,1.56,1.71.59.46,1.24.83,1.91,1.16.69.32,1.33.64,1.92.98.59.38,1.08.73,1.47,1.14.39.44.58.97.58,1.64,0,.46-.24.9-.74,1.28-.51.38-2.4.82-4.45.11-.51-.16-2.53-1.19-2.53-1.19v3.1c.62.31,1.1.57,1.67.72.55.18,1.76.56,3.27.56,2.07,0,3.51-.52,4.48-1.49.98-.98,1.45-2.19,1.45-3.71,0-.67-.14-1.27-.39-1.78-.28-.51-.62-.96-1.06-1.39-.43-.42-.9-.81-1.43-1.12-.51-.29-1.03-.61-1.55-.88-.44-.24-.87-.45-1.28-.65-.4-.18-.77-.41-1.1-.64-.33-.23-.6-.53-.78-.84-.21-.3-.3-.69-.3-1.15,0-.44.08-.8.3-1.09.18-.29.44-.5.75-.66.34-.15.93-.28,1.32-.32,2.56-.27,4.69.96,4.69.96v-2.58c-2.08-.75-4.22-.96-5.97-.62M61.92,280.33v6.33l2.01-1.09s.67-.33.67-.94v-3.55c0-.42-.26-.75-.7-.75h-1.97ZM74.33,261.19v12.78l-2.62-6.83s-.21-.64-1.04-.64h-2.47l4.64,11.64h3.86s.79-.15.79-.95v-14.99c0-.67-.25-1-.86-1h-2.29ZM110.79,250.4l-2.13,1.13s-.53.28-.53,1.1v1.96h-5.41c-1.03,0-1.38.58-1.38.58l-1.48,1.9v.03h9.99c.77,0,.94-.31.94-1.1v-5.6ZM96.46,260h-2.36c-.77,0-1.2.58-1.2.58l-.36.47c-.97-.43-2.14-.66-3.53-.66-2.34,0-4.09.61-5.25,1.83-1.14,1.19-1.74,2.94-1.74,5.2v10.71h2.12l-.02.03h.26c.53,0,.77-.32.77-.74h0v-6.71h2.76c.61,0,.77-.15.96-.42.03-.01,1.31-2.12,1.31-2.12h-5.02c0-.76.02-1.48.07-2.09.06-.67.24-1.2.48-1.69.26-.46.65-.84,1.15-1.09.51-.27,1.24-.41,2.16-.41s1.56.13,2.07.37c.53.23.9.58,1.16,1.02.25.43.42.94.49,1.53.07.58.12,1.24.12,1.95v10.35h2.35c.5,0,.74-.29.74-.72v-9.99c0-2.06-.48-3.69-1.44-4.86l1.94-2.52v-.03ZM48.21,262.22c-1.16-1.22-2.89-1.83-5.19-1.83s-4.1.61-5.25,1.83c-1.18,1.19-1.75,2.94-1.75,5.2v10.71h2.35c.51,0,.76-.29.76-.72v-9.23c0-.76.02-1.48.08-2.1.06-.67.24-1.2.49-1.69.25-.46.64-.85,1.14-1.1.51-.27,1.22-.41,2.18-.41.86,0,1.56.13,2.06.38.5.23.89.57,1.13,1.02.28.43.44.94.51,1.53.07.58.11,1.24.11,1.95v10.36h2.36c.51,0,.76-.29.76-.72v-9.99c0-2.26-.58-4.01-1.75-5.2"/><path class="f" d="M99.8,130.9c.08.1.21.3.07.59-1.36,2.77-11.52,22.67-29.4,32.86-.31.16-.5.08-.61,0-5.48-6.18-9.85-13.39-12.77-21.28-.03-.14-.02-.39.29-.5,5.72-1.94,22.41-10.81,29.31-33.21v.02s.14-.44.34-.44.33.39.33.39c3.19,10.18,8.23,17.23,12.4,21.53,0,0,.02.02.04.03h0M140.34,130.9c-.05.1-.19.3-.05.59,1.34,2.77,11.51,22.67,29.41,32.86.28.16.5.08.59,0,5.5-6.18,9.86-13.39,12.76-21.28.04-.14.02-.39-.28-.5-5.72-1.94-22.39-10.81-29.3-33.21v.02s-.13-.44-.34-.44c-.19,0-.33.39-.33.39-3.17,10.18-8.23,17.23-12.4,21.53,0,0,0,.02-.06.03h0M152.44,178.25h0c-25.3-24.62-31.93-68.54-31.93-68.54,0,0-.1-.76-.43-.76s-.43.76-.43.76c0,0-6.64,43.92-31.92,68.54,0,0-.26.23.02.4,9.45,5.21,20.33,8.21,31.9,8.29h.87c11.57-.08,22.44-3.08,31.91-8.3.27-.19.02-.39.02-.39M155.11,62.47c-.38-.2-.39.32-.39.32.03,7.93,1.09,51.64,31.66,64.98.29.13.37-.09.38-.15.3-2.58.48-5.19.48-7.83,0-24.28-12.87-45.51-32.13-57.31M85.06,62.47c-19.26,11.8-32.13,33.03-32.13,57.31,0,2.64.18,5.25.48,7.83.02.06.11.29.38.15,30.57-13.34,31.62-57.05,31.66-64.98,0,0,0-.51-.38-.32M151.09,60.18c-8.74-4.55-18.57-7.23-29.03-7.55-.29,0-.25.35-.25.35,0,13.33,2.14,44.53,12.56,65.6.08.24.27.14.36.09,0-.01.03-.03.05-.04,1.03-1.11,17.18-18.84,16.55-58-.02-.26-.17-.42-.24-.45M89.07,60.18c-.08.03-.21.19-.23.45-.64,39.17,15.5,56.9,16.53,58,.04.01.04.03.07.04.05.04.25.14.33-.09,10.42-21.07,12.57-52.27,12.57-65.6,0,0,.01-.35-.26-.35-10.45.33-20.31,3-29.02,7.55"/></g></svg>