<?xml version="1.0" encoding="utf-8"?>
<!-- Generator: Adobe Illustrator 21.1.0, SVG Export Plug-In . SVG Version: 6.00 Build 0)  -->
<svg version="1.1" id="Слой_1" xmlns="http://www.w3.org/2000/svg" xmlns:xlink="http://www.w3.org/1999/xlink" x="0px" y="0px"
	 viewBox="0 0 841.9 535.9" style="enable-background:new 0 0 841.9 535.9;" xml:space="preserve">
<style type="text/css">
	.st0{clip-path:url(#SVGID_2_);fill:#FC5055;}
	.st1{clip-path:url(#SVGID_2_);fill:#003790;}
</style>
<g>
	<defs>
		<rect id="SVGID_1_" x="136" y="229" width="573.7" height="79.5"/>
	</defs>
	<clipPath id="SVGID_2_">
		<use xlink:href="#SVGID_1_"  style="overflow:visible;"/>
	</clipPath>
	<path class="st0" d="M138.8,268.6c0,20.2,16.4,36.7,36.7,36.7h1.4v-13.8h-1.4c-12.6,0-22.6-10.2-22.6-22.6
		c0-12.6,10.2-22.6,22.6-22.6h1.4v-14h-1.4C155.2,232.2,138.8,248.6,138.8,268.6"/>
	<path class="st1" d="M230.3,278.3c3.2,2.8,9.2,6.6,17,6.6c5.4,0,10.4-1.8,10.4-6.2c0-3.8-3.8-5-9-6.2l-7.6-1.8
		c-4.8-1.2-7.6-3-9.2-4.8c-2-2.2-2.6-4.8-2.6-7.2c0-8.2,7-12.6,17-12.6c7.4,0,14,3,17,5.4l-4.2,5.6c-2.6-1.8-7.2-4.4-13.2-4.4
		c-4.4,0-9.6,1.4-9.6,5.4c0,3.2,2.8,4.8,6.8,5.6l6,1.4c6.6,1.6,9.6,2.8,12,4.8s3.8,4.6,3.8,8.4c0,8.4-7.2,13.4-17.8,13.4
		c-10.4,0-17.8-4.4-21.2-7.6L230.3,278.3z"/>
	<path class="st1" d="M292.9,245.6c13.4,0,23.2,9.8,23.2,23c0,13.2-9.8,23-23.2,23c-13.4,0-23.2-9.8-23.2-23
		C269.6,255.4,279.4,245.6,292.9,245.6 M292.9,284.9c9.2,0,15.8-6.8,15.8-16s-6.8-16-15.8-16c-9.2,0-15.8,6.8-15.8,16
		S283.9,284.9,292.9,284.9"/>
	<polygon class="st1" points="355.2,246.6 363.2,246.6 344.6,290.7 336.6,290.7 318.1,246.6 325.9,246.6 340.6,282.1 	"/>
	<path class="st1" d="M388.3,245.6c8.2,0,14.6,3.4,17.2,6l-4.4,5.4c-2.2-2-7-4.6-12.8-4.6c-9.4,0-15.8,6.8-15.8,16
		c0,9.2,6,16,15.8,16c6.6,0,11.6-3,13.8-5.2l4.2,5.6c-2.6,2.8-9.2,6.6-18,6.6c-14.2,0-23.2-9.8-23.2-23
		C365,255.2,374.4,245.6,388.3,245.6"/>
	<path class="st1" d="M434.1,245.6c13.4,0,23.2,9.8,23.2,23c0,13.2-9.8,23-23.2,23c-13.4,0-23.2-9.8-23.2-23
		C410.9,255.4,420.5,245.6,434.1,245.6 M434.1,284.9c9.2,0,15.8-6.8,15.8-16s-6.8-16-15.8-16c-9.2,0-15.8,6.8-15.8,16
		S424.9,284.9,434.1,284.9"/>
	<path class="st1" d="M561.8,278.1c0,6.4-4.2,12.8-14.8,12.8h-23.4v-44.1h22c9,0,14,5.6,14,11.8c0,3.6-1.6,6.8-5.6,9.4
		C558.2,269,561.8,271.8,561.8,278.1 M530.7,253.6v11.6H545c4.8,0,7.2-2.8,7.2-6c0-3-2.4-5.6-6.8-5.6H530.7z M547.4,283.9
		c5,0,7-2.8,7-6c0-3.4-2-6-6.8-6h-16.8v12H547.4z"/>
	<path class="st1" d="M602.3,290.7l-4.8-11h-20.8l-4.8,11h-8l19.2-44.1h8l19.2,44.1H602.3z M579.4,273h15.2l-7.6-17.6L579.4,273z"/>
	<polygon class="st1" points="648.5,246.6 655.6,246.6 655.6,290.7 649.4,290.7 622.9,258.6 622.9,290.7 615.9,290.7 615.9,246.6 
		622.1,246.6 648.5,278.9 	"/>
	<polygon class="st1" points="688.2,268 706.9,290.7 697.2,290.7 681.8,271.4 672.8,271.4 672.8,290.7 665.6,290.7 665.6,246.6 
		672.8,246.6 672.8,264.8 681.8,264.8 696.8,246.6 706.5,246.6 	"/>
	<polygon class="st1" points="506.5,246.6 513.5,246.6 513.5,290.7 506.1,290.7 506.1,258 491.6,277.3 487.2,277.3 472.8,258 
		472.8,290.7 465.6,290.7 465.6,246.6 472.6,246.6 489.4,269.2 	"/>
	<path class="st1" d="M182.7,232.8v19h-7.4c-9.2,0-16.8,7.6-16.8,16.8c0,9.2,7.6,16.8,16.8,16.8h7.4v19c16.8-3.2,29.5-18,29.5-35.9
		C212.1,251,199.5,236.2,182.7,232.8"/>
</g>
</svg>
